<mxfile host="app.diagrams.net" agent="Mozilla/5.0 (Macintosh; Intel Mac OS X 10_15_7) AppleWebKit/537.36 (KHTML, like Gecko) Chrome/126.0.0.0 Safari/537.36" version="24.7.6">
  <diagram name="Page-1" id="4Me0BUE1SWw2DZ3VJnv3">
    <mxGraphModel dx="760" dy="510" grid="1" gridSize="10" guides="1" tooltips="1" connect="1" arrows="1" fold="1" page="1" pageScale="1" pageWidth="850" pageHeight="1100" math="0" shadow="0">
      <root>
        <mxCell id="0" />
        <mxCell id="1" parent="0" />
        <mxCell id="oAZk2h4rDe7o5KF55E5x-2" value="" style="sketch=0;outlineConnect=0;fontColor=#232F3E;gradientColor=none;fillColor=#232F3D;strokeColor=none;dashed=0;verticalLabelPosition=bottom;verticalAlign=top;align=center;html=1;fontSize=8;fontStyle=0;aspect=fixed;pointerEvents=1;shape=mxgraph.aws4.client;" parent="1" vertex="1">
          <mxGeometry x="40" y="280" width="41.05" height="40" as="geometry" />
        </mxCell>
        <mxCell id="oAZk2h4rDe7o5KF55E5x-3" value="" style="sketch=0;points=[[0,0,0],[0.25,0,0],[0.5,0,0],[0.75,0,0],[1,0,0],[0,1,0],[0.25,1,0],[0.5,1,0],[0.75,1,0],[1,1,0],[0,0.25,0],[0,0.5,0],[0,0.75,0],[1,0.25,0],[1,0.5,0],[1,0.75,0]];outlineConnect=0;fillColor=#DD344C;strokeColor=#ffffff;dashed=0;verticalLabelPosition=bottom;verticalAlign=top;align=center;html=1;aspect=fixed;shape=mxgraph.aws4.resourceIcon;resIcon=mxgraph.aws4.cognito;fontSize=8;" parent="1" vertex="1">
          <mxGeometry x="200" y="160" width="40" height="40" as="geometry" />
        </mxCell>
        <mxCell id="oAZk2h4rDe7o5KF55E5x-5" value="Cognito User Pool" style="text;strokeColor=none;align=center;fillColor=none;html=1;verticalAlign=middle;whiteSpace=wrap;rounded=0;fontSize=8;fontStyle=1" parent="1" vertex="1">
          <mxGeometry x="238" y="165.74" width="80" height="28.52" as="geometry" />
        </mxCell>
        <mxCell id="oAZk2h4rDe7o5KF55E5x-8" value="" style="sketch=0;points=[[0,0,0],[0.25,0,0],[0.5,0,0],[0.75,0,0],[1,0,0],[0,1,0],[0.25,1,0],[0.5,1,0],[0.75,1,0],[1,1,0],[0,0.25,0],[0,0.5,0],[0,0.75,0],[1,0.25,0],[1,0.5,0],[1,0.75,0]];outlineConnect=0;fontColor=#232F3E;fillColor=#E7157B;strokeColor=#ffffff;dashed=0;verticalLabelPosition=bottom;verticalAlign=top;align=center;html=1;fontSize=8;fontStyle=0;aspect=fixed;shape=mxgraph.aws4.resourceIcon;resIcon=mxgraph.aws4.appsync;" parent="1" vertex="1">
          <mxGeometry x="200" y="280" width="40" height="40" as="geometry" />
        </mxCell>
        <mxCell id="oAZk2h4rDe7o5KF55E5x-9" value="" style="sketch=0;points=[[0,0,0],[0.25,0,0],[0.5,0,0],[0.75,0,0],[1,0,0],[0,1,0],[0.25,1,0],[0.5,1,0],[0.75,1,0],[1,1,0],[0,0.25,0],[0,0.5,0],[0,0.75,0],[1,0.25,0],[1,0.5,0],[1,0.75,0]];outlineConnect=0;fontColor=#232F3E;fillColor=#527FFF;strokeColor=#ffffff;dashed=0;verticalLabelPosition=bottom;verticalAlign=top;align=center;html=1;fontSize=8;fontStyle=0;aspect=fixed;shape=mxgraph.aws4.resourceIcon;resIcon=mxgraph.aws4.dynamodb;" parent="1" vertex="1">
          <mxGeometry x="360" y="400" width="40" height="40" as="geometry" />
        </mxCell>
        <mxCell id="oAZk2h4rDe7o5KF55E5x-22" value="" style="edgeStyle=orthogonalEdgeStyle;rounded=0;orthogonalLoop=1;jettySize=auto;html=1;fontSize=8;" parent="1" source="oAZk2h4rDe7o5KF55E5x-10" target="oAZk2h4rDe7o5KF55E5x-11" edge="1">
          <mxGeometry relative="1" as="geometry" />
        </mxCell>
        <mxCell id="oAZk2h4rDe7o5KF55E5x-10" value="" style="sketch=0;outlineConnect=0;fontColor=#232F3E;gradientColor=none;fillColor=#ED7100;strokeColor=none;dashed=0;verticalLabelPosition=bottom;verticalAlign=top;align=center;html=1;fontSize=8;fontStyle=0;aspect=fixed;pointerEvents=1;shape=mxgraph.aws4.lambda_function;" parent="1" vertex="1">
          <mxGeometry x="360" y="280" width="40" height="40" as="geometry" />
        </mxCell>
        <mxCell id="oAZk2h4rDe7o5KF55E5x-11" value="" style="sketch=0;points=[[0,0,0],[0.25,0,0],[0.5,0,0],[0.75,0,0],[1,0,0],[0,1,0],[0.25,1,0],[0.5,1,0],[0.75,1,0],[1,1,0],[0,0.25,0],[0,0.5,0],[0,0.75,0],[1,0.25,0],[1,0.5,0],[1,0.75,0]];outlineConnect=0;fontColor=#232F3E;fillColor=#E7157B;strokeColor=#ffffff;dashed=0;verticalLabelPosition=bottom;verticalAlign=top;align=center;html=1;fontSize=8;fontStyle=0;aspect=fixed;shape=mxgraph.aws4.resourceIcon;resIcon=mxgraph.aws4.sqs;" parent="1" vertex="1">
          <mxGeometry x="520" y="280" width="40" height="40" as="geometry" />
        </mxCell>
        <mxCell id="oAZk2h4rDe7o5KF55E5x-12" value="" style="sketch=0;outlineConnect=0;fontColor=#232F3E;gradientColor=none;fillColor=#ED7100;strokeColor=none;dashed=0;verticalLabelPosition=bottom;verticalAlign=top;align=center;html=1;fontSize=8;fontStyle=0;aspect=fixed;pointerEvents=1;shape=mxgraph.aws4.lambda_function;" parent="1" vertex="1">
          <mxGeometry x="520" y="400" width="40" height="40" as="geometry" />
        </mxCell>
        <mxCell id="oAZk2h4rDe7o5KF55E5x-13" value="" style="sketch=0;points=[[0,0,0],[0.25,0,0],[0.5,0,0],[0.75,0,0],[1,0,0],[0,1,0],[0.25,1,0],[0.5,1,0],[0.75,1,0],[1,1,0],[0,0.25,0],[0,0.5,0],[0,0.75,0],[1,0.25,0],[1,0.5,0],[1,0.75,0]];outlineConnect=0;fontColor=#232F3E;fillColor=#7AA116;strokeColor=#ffffff;dashed=0;verticalLabelPosition=bottom;verticalAlign=top;align=center;html=1;fontSize=8;fontStyle=0;aspect=fixed;shape=mxgraph.aws4.resourceIcon;resIcon=mxgraph.aws4.s3;" parent="1" vertex="1">
          <mxGeometry x="680" y="400" width="40" height="40" as="geometry" />
        </mxCell>
        <mxCell id="oAZk2h4rDe7o5KF55E5x-16" value="" style="edgeStyle=orthogonalEdgeStyle;html=1;endArrow=block;elbow=vertical;startArrow=block;startFill=1;endFill=1;strokeColor=#545B64;rounded=0;fontSize=8;" parent="1" source="oAZk2h4rDe7o5KF55E5x-2" target="oAZk2h4rDe7o5KF55E5x-3" edge="1">
          <mxGeometry width="100" relative="1" as="geometry">
            <mxPoint x="60" y="210" as="sourcePoint" />
            <mxPoint x="160" y="179.7" as="targetPoint" />
            <Array as="points">
              <mxPoint x="61" y="180" />
            </Array>
          </mxGeometry>
        </mxCell>
        <mxCell id="oAZk2h4rDe7o5KF55E5x-18" value="" style="edgeStyle=orthogonalEdgeStyle;html=1;endArrow=block;elbow=vertical;startArrow=block;startFill=1;endFill=1;strokeColor=#545B64;rounded=0;exitX=0.5;exitY=1;exitDx=0;exitDy=0;exitPerimeter=0;fontSize=8;" parent="1" source="oAZk2h4rDe7o5KF55E5x-3" target="oAZk2h4rDe7o5KF55E5x-8" edge="1">
          <mxGeometry width="100" relative="1" as="geometry">
            <mxPoint x="140" y="240" as="sourcePoint" />
            <mxPoint x="240" y="240" as="targetPoint" />
          </mxGeometry>
        </mxCell>
        <mxCell id="oAZk2h4rDe7o5KF55E5x-19" value="" style="edgeStyle=orthogonalEdgeStyle;html=1;endArrow=block;elbow=vertical;startArrow=none;endFill=1;strokeColor=#545B64;rounded=0;fontSize=8;" parent="1" source="oAZk2h4rDe7o5KF55E5x-8" target="oAZk2h4rDe7o5KF55E5x-10" edge="1">
          <mxGeometry width="100" relative="1" as="geometry">
            <mxPoint x="170" y="330" as="sourcePoint" />
            <mxPoint x="270" y="330" as="targetPoint" />
          </mxGeometry>
        </mxCell>
        <mxCell id="oAZk2h4rDe7o5KF55E5x-20" value="" style="edgeStyle=orthogonalEdgeStyle;html=1;endArrow=block;elbow=vertical;startArrow=none;endFill=1;strokeColor=#545B64;rounded=0;fontSize=8;" parent="1" source="oAZk2h4rDe7o5KF55E5x-10" target="oAZk2h4rDe7o5KF55E5x-9" edge="1">
          <mxGeometry width="100" relative="1" as="geometry">
            <mxPoint x="170" y="330" as="sourcePoint" />
            <mxPoint x="270" y="330" as="targetPoint" />
          </mxGeometry>
        </mxCell>
        <mxCell id="oAZk2h4rDe7o5KF55E5x-21" value="" style="edgeStyle=orthogonalEdgeStyle;html=1;endArrow=block;elbow=vertical;startArrow=none;endFill=1;strokeColor=#545B64;rounded=0;fontSize=8;" parent="1" source="oAZk2h4rDe7o5KF55E5x-10" target="oAZk2h4rDe7o5KF55E5x-11" edge="1">
          <mxGeometry width="100" relative="1" as="geometry">
            <mxPoint x="320" y="299.7" as="sourcePoint" />
            <mxPoint x="400" y="299.7" as="targetPoint" />
          </mxGeometry>
        </mxCell>
        <mxCell id="oAZk2h4rDe7o5KF55E5x-23" value="" style="edgeStyle=orthogonalEdgeStyle;html=1;endArrow=block;elbow=vertical;startArrow=none;endFill=1;strokeColor=#545B64;rounded=0;fontSize=8;" parent="1" source="oAZk2h4rDe7o5KF55E5x-11" target="oAZk2h4rDe7o5KF55E5x-12" edge="1">
          <mxGeometry width="100" relative="1" as="geometry">
            <mxPoint x="400" y="350" as="sourcePoint" />
            <mxPoint x="420" y="390" as="targetPoint" />
          </mxGeometry>
        </mxCell>
        <mxCell id="oAZk2h4rDe7o5KF55E5x-24" value="" style="edgeStyle=orthogonalEdgeStyle;html=1;endArrow=block;elbow=vertical;startArrow=none;endFill=1;strokeColor=#545B64;rounded=0;fontSize=8;" parent="1" source="oAZk2h4rDe7o5KF55E5x-12" target="oAZk2h4rDe7o5KF55E5x-13" edge="1">
          <mxGeometry width="100" relative="1" as="geometry">
            <mxPoint x="470" y="420" as="sourcePoint" />
            <mxPoint x="500" y="420" as="targetPoint" />
          </mxGeometry>
        </mxCell>
        <mxCell id="oAZk2h4rDe7o5KF55E5x-25" value="" style="edgeStyle=orthogonalEdgeStyle;html=1;endArrow=none;elbow=vertical;startArrow=block;startFill=1;strokeColor=#545B64;rounded=0;fontSize=8;" parent="1" source="oAZk2h4rDe7o5KF55E5x-9" target="oAZk2h4rDe7o5KF55E5x-12" edge="1">
          <mxGeometry width="100" relative="1" as="geometry">
            <mxPoint x="270" y="460" as="sourcePoint" />
            <mxPoint x="370" y="460" as="targetPoint" />
          </mxGeometry>
        </mxCell>
        <mxCell id="oAZk2h4rDe7o5KF55E5x-26" value="" style="edgeStyle=orthogonalEdgeStyle;html=1;endArrow=none;elbow=vertical;startArrow=block;startFill=1;strokeColor=#545B64;rounded=0;fontSize=8;" parent="1" source="oAZk2h4rDe7o5KF55E5x-8" target="oAZk2h4rDe7o5KF55E5x-9" edge="1">
          <mxGeometry width="100" relative="1" as="geometry">
            <mxPoint x="170" y="330" as="sourcePoint" />
            <mxPoint x="270" y="410" as="targetPoint" />
            <Array as="points">
              <mxPoint x="220" y="420" />
            </Array>
          </mxGeometry>
        </mxCell>
        <mxCell id="oAZk2h4rDe7o5KF55E5x-27" value="" style="edgeStyle=orthogonalEdgeStyle;html=1;endArrow=none;elbow=vertical;startArrow=block;startFill=1;strokeColor=#545B64;rounded=0;entryX=0;entryY=0.5;entryDx=0;entryDy=0;entryPerimeter=0;fontSize=8;" parent="1" source="oAZk2h4rDe7o5KF55E5x-2" target="oAZk2h4rDe7o5KF55E5x-8" edge="1">
          <mxGeometry width="100" relative="1" as="geometry">
            <mxPoint x="90" y="300" as="sourcePoint" />
            <mxPoint x="160" y="360" as="targetPoint" />
          </mxGeometry>
        </mxCell>
        <mxCell id="oAZk2h4rDe7o5KF55E5x-28" value="Authenticate" style="text;strokeColor=none;align=center;fillColor=none;html=1;verticalAlign=middle;whiteSpace=wrap;rounded=0;fontSize=8;" parent="1" vertex="1">
          <mxGeometry x="81" y="168" width="60" height="10" as="geometry" />
        </mxCell>
        <mxCell id="oAZk2h4rDe7o5KF55E5x-30" value="Retrieve token" style="text;strokeColor=none;align=center;fillColor=none;html=1;verticalAlign=middle;whiteSpace=wrap;rounded=0;fontSize=8;" parent="1" vertex="1">
          <mxGeometry x="61" y="181" width="100" height="10" as="geometry" />
        </mxCell>
        <mxCell id="oAZk2h4rDe7o5KF55E5x-32" value="" style="edgeStyle=orthogonalEdgeStyle;html=1;endArrow=block;elbow=vertical;startArrow=none;endFill=1;strokeColor=#545B64;rounded=0;fontSize=8;entryX=0;entryY=0.25;entryDx=0;entryDy=0;entryPerimeter=0;" parent="1" target="oAZk2h4rDe7o5KF55E5x-8" edge="1">
          <mxGeometry width="100" relative="1" as="geometry">
            <mxPoint x="81.0548745469751" y="290" as="sourcePoint" />
            <mxPoint x="160" y="290" as="targetPoint" />
          </mxGeometry>
        </mxCell>
        <mxCell id="oAZk2h4rDe7o5KF55E5x-33" value="Authenticated audio download request" style="text;strokeColor=none;align=center;fillColor=none;html=1;verticalAlign=middle;whiteSpace=wrap;rounded=0;fontSize=8;" parent="1" vertex="1">
          <mxGeometry x="90" y="258" width="60" height="30" as="geometry" />
        </mxCell>
        <mxCell id="oAZk2h4rDe7o5KF55E5x-34" value="Token validation" style="text;strokeColor=none;align=center;fillColor=none;html=1;verticalAlign=middle;whiteSpace=wrap;rounded=0;fontSize=8;" parent="1" vertex="1">
          <mxGeometry x="214" y="225" width="59" height="10" as="geometry" />
        </mxCell>
        <mxCell id="oAZk2h4rDe7o5KF55E5x-36" value="on audio download request" style="text;strokeColor=none;align=center;fillColor=none;html=1;verticalAlign=middle;whiteSpace=wrap;rounded=0;fontSize=8;" parent="1" vertex="1">
          <mxGeometry x="258" y="272" width="72" height="30" as="geometry" />
        </mxCell>
        <mxCell id="oAZk2h4rDe7o5KF55E5x-37" value="set download status &quot;enqueued&quot;" style="text;strokeColor=none;align=center;fillColor=none;html=1;verticalAlign=middle;whiteSpace=wrap;rounded=0;fontSize=8;" parent="1" vertex="1">
          <mxGeometry x="322" y="342" width="60" height="30" as="geometry" />
        </mxCell>
        <mxCell id="oAZk2h4rDe7o5KF55E5x-38" value="add task to SQS" style="text;strokeColor=none;align=center;fillColor=none;html=1;verticalAlign=middle;whiteSpace=wrap;rounded=0;fontSize=8;" parent="1" vertex="1">
          <mxGeometry x="424" y="271" width="60" height="30" as="geometry" />
        </mxCell>
        <mxCell id="oAZk2h4rDe7o5KF55E5x-39" value="poll tasks from SQS" style="text;strokeColor=none;align=center;fillColor=none;html=1;verticalAlign=middle;whiteSpace=wrap;rounded=0;fontSize=8;" parent="1" vertex="1">
          <mxGeometry x="491" y="341" width="48" height="30" as="geometry" />
        </mxCell>
        <mxCell id="oAZk2h4rDe7o5KF55E5x-40" value="download audio from Youtube" style="text;strokeColor=none;align=center;fillColor=none;html=1;verticalAlign=middle;whiteSpace=wrap;rounded=0;fontSize=8;" parent="1" vertex="1">
          <mxGeometry x="510" y="451" width="60" height="30" as="geometry" />
        </mxCell>
        <mxCell id="oAZk2h4rDe7o5KF55E5x-41" value="Save audio file to S3" style="text;strokeColor=none;align=center;fillColor=none;html=1;verticalAlign=middle;whiteSpace=wrap;rounded=0;fontSize=8;" parent="1" vertex="1">
          <mxGeometry x="586" y="394" width="60" height="30" as="geometry" />
        </mxCell>
        <mxCell id="oAZk2h4rDe7o5KF55E5x-42" value="Set status&lt;div&gt;&quot;in-progress&quot; /&amp;nbsp;&lt;span style=&quot;background-color: initial;&quot;&gt;&quot;finished&quot;&lt;/span&gt;&lt;/div&gt;&lt;div&gt;&lt;span style=&quot;background-color: initial;&quot;&gt;Set path to the S3 file&lt;/span&gt;&lt;/div&gt;" style="text;strokeColor=none;align=center;fillColor=none;html=1;verticalAlign=middle;whiteSpace=wrap;rounded=0;fontSize=8;" parent="1" vertex="1">
          <mxGeometry x="414" y="420" width="96" height="30" as="geometry" />
        </mxCell>
        <mxCell id="oAZk2h4rDe7o5KF55E5x-43" value="Notify about changes" style="text;strokeColor=none;align=center;fillColor=none;html=1;verticalAlign=middle;whiteSpace=wrap;rounded=0;fontSize=8;" parent="1" vertex="1">
          <mxGeometry x="240" y="390" width="60" height="30" as="geometry" />
        </mxCell>
        <mxCell id="oAZk2h4rDe7o5KF55E5x-44" value="websockets: n&lt;span style=&quot;background-color: initial; font-size: 8px;&quot;&gt;otify about status change and the url to the file&lt;/span&gt;" style="text;strokeColor=none;align=center;fillColor=none;html=1;verticalAlign=middle;whiteSpace=wrap;rounded=0;fontSize=8;" parent="1" vertex="1">
          <mxGeometry x="93.52" y="308" width="96.48" height="30" as="geometry" />
        </mxCell>
        <mxCell id="oAZk2h4rDe7o5KF55E5x-45" value="User" style="text;strokeColor=none;align=center;fillColor=none;html=1;verticalAlign=middle;whiteSpace=wrap;rounded=0;fontSize=8;fontStyle=1" parent="1" vertex="1">
          <mxGeometry y="288" width="40" height="20" as="geometry" />
        </mxCell>
        <mxCell id="oAZk2h4rDe7o5KF55E5x-46" value="Appsync" style="text;strokeColor=none;align=center;fillColor=none;html=1;verticalAlign=middle;whiteSpace=wrap;rounded=0;fontSize=8;fontStyle=1" parent="1" vertex="1">
          <mxGeometry x="203.5" y="315.74" width="80" height="28.52" as="geometry" />
        </mxCell>
        <mxCell id="oAZk2h4rDe7o5KF55E5x-47" value="DynamoDB" style="text;strokeColor=none;align=center;fillColor=none;html=1;verticalAlign=middle;whiteSpace=wrap;rounded=0;fontSize=8;fontStyle=1" parent="1" vertex="1">
          <mxGeometry x="352" y="439.48" width="60" height="20" as="geometry" />
        </mxCell>
        <mxCell id="oAZk2h4rDe7o5KF55E5x-48" value="Lambda" style="text;strokeColor=none;align=center;fillColor=none;html=1;verticalAlign=middle;whiteSpace=wrap;rounded=0;fontSize=8;fontStyle=1" parent="1" vertex="1">
          <mxGeometry x="355" y="247" width="50" height="20" as="geometry" />
        </mxCell>
        <mxCell id="oAZk2h4rDe7o5KF55E5x-49" value="SQS" style="text;strokeColor=none;align=center;fillColor=none;html=1;verticalAlign=middle;whiteSpace=wrap;rounded=0;fontSize=8;fontStyle=1" parent="1" vertex="1">
          <mxGeometry x="558" y="290" width="40" height="20" as="geometry" />
        </mxCell>
        <mxCell id="oAZk2h4rDe7o5KF55E5x-50" value="S3" style="text;strokeColor=none;align=center;fillColor=none;html=1;verticalAlign=middle;whiteSpace=wrap;rounded=0;fontSize=8;fontStyle=1" parent="1" vertex="1">
          <mxGeometry x="680" y="439.48" width="40" height="20" as="geometry" />
        </mxCell>
        <mxCell id="oAZk2h4rDe7o5KF55E5x-51" value="Lambda" style="text;strokeColor=none;align=center;fillColor=none;html=1;verticalAlign=middle;whiteSpace=wrap;rounded=0;fontSize=8;fontStyle=1" parent="1" vertex="1">
          <mxGeometry x="521" y="439.48" width="40" height="20" as="geometry" />
        </mxCell>
        <mxCell id="oAZk2h4rDe7o5KF55E5x-52" value="enqueue download" style="text;strokeColor=none;align=center;fillColor=none;html=1;verticalAlign=middle;whiteSpace=wrap;rounded=0;fontSize=8;" parent="1" vertex="1">
          <mxGeometry x="334" y="262" width="90" height="20" as="geometry" />
        </mxCell>
        <mxCell id="zxud25XrWhdT_YTVwUdq-1" value="" style="sketch=0;points=[[0,0,0],[0.25,0,0],[0.5,0,0],[0.75,0,0],[1,0,0],[0,1,0],[0.25,1,0],[0.5,1,0],[0.75,1,0],[1,1,0],[0,0.25,0],[0,0.5,0],[0,0.75,0],[1,0.25,0],[1,0.5,0],[1,0.75,0]];outlineConnect=0;fontColor=#232F3E;fillColor=#7AA116;strokeColor=#ffffff;dashed=0;verticalLabelPosition=bottom;verticalAlign=top;align=center;html=1;fontSize=8;fontStyle=0;aspect=fixed;shape=mxgraph.aws4.resourceIcon;resIcon=mxgraph.aws4.s3;" vertex="1" parent="1">
          <mxGeometry x="200" y="480" width="40" height="40" as="geometry" />
        </mxCell>
        <mxCell id="zxud25XrWhdT_YTVwUdq-2" value="" style="sketch=0;points=[[0,0,0],[0.25,0,0],[0.5,0,0],[0.75,0,0],[1,0,0],[0,1,0],[0.25,1,0],[0.5,1,0],[0.75,1,0],[1,1,0],[0,0.25,0],[0,0.5,0],[0,0.75,0],[1,0.25,0],[1,0.5,0],[1,0.75,0]];outlineConnect=0;fontColor=#232F3E;fillColor=#8C4FFF;strokeColor=#ffffff;dashed=0;verticalLabelPosition=bottom;verticalAlign=top;align=center;html=1;fontSize=12;fontStyle=0;aspect=fixed;shape=mxgraph.aws4.resourceIcon;resIcon=mxgraph.aws4.cloudfront;" vertex="1" parent="1">
          <mxGeometry x="100" y="480" width="40" height="40" as="geometry" />
        </mxCell>
        <mxCell id="zxud25XrWhdT_YTVwUdq-4" value="S3" style="text;strokeColor=none;align=center;fillColor=none;html=1;verticalAlign=middle;whiteSpace=wrap;rounded=0;fontSize=8;fontStyle=1" vertex="1" parent="1">
          <mxGeometry x="198" y="521" width="40" height="20" as="geometry" />
        </mxCell>
        <mxCell id="zxud25XrWhdT_YTVwUdq-5" value="CloudFront" style="text;strokeColor=none;align=center;fillColor=none;html=1;verticalAlign=middle;whiteSpace=wrap;rounded=0;fontSize=8;fontStyle=1" vertex="1" parent="1">
          <mxGeometry x="100" y="521" width="40" height="20" as="geometry" />
        </mxCell>
        <mxCell id="zxud25XrWhdT_YTVwUdq-8" value="Front-end app" style="text;strokeColor=none;align=center;fillColor=none;html=1;verticalAlign=middle;whiteSpace=wrap;rounded=0;fontSize=8;fontStyle=1" vertex="1" parent="1">
          <mxGeometry x="139" y="459" width="59" height="20" as="geometry" />
        </mxCell>
        <mxCell id="zxud25XrWhdT_YTVwUdq-9" value="" style="edgeStyle=orthogonalEdgeStyle;html=1;endArrow=block;elbow=vertical;startArrow=none;startFill=0;endFill=1;strokeColor=default;rounded=0;fontSize=8;entryX=0;entryY=0.5;entryDx=0;entryDy=0;entryPerimeter=0;" edge="1" parent="1" source="zxud25XrWhdT_YTVwUdq-2" target="zxud25XrWhdT_YTVwUdq-1">
          <mxGeometry width="100" relative="1" as="geometry">
            <mxPoint x="161" y="499.67" as="sourcePoint" />
            <mxPoint x="190" y="500" as="targetPoint" />
          </mxGeometry>
        </mxCell>
        <mxCell id="zxud25XrWhdT_YTVwUdq-10" value="" style="edgeStyle=orthogonalEdgeStyle;html=1;endArrow=none;elbow=vertical;startArrow=block;startFill=1;strokeColor=#545B64;rounded=0;fontSize=8;exitX=0;exitY=0.5;exitDx=0;exitDy=0;exitPerimeter=0;" edge="1" parent="1" source="zxud25XrWhdT_YTVwUdq-2" target="oAZk2h4rDe7o5KF55E5x-2">
          <mxGeometry width="100" relative="1" as="geometry">
            <mxPoint x="71" y="500" as="sourcePoint" />
            <mxPoint x="65" y="350" as="targetPoint" />
            <Array as="points">
              <mxPoint x="60" y="500" />
            </Array>
          </mxGeometry>
        </mxCell>
      </root>
    </mxGraphModel>
  </diagram>
</mxfile>
